<svg viewBox="0 0 200 200" xmlns="http://www.w3.org/2000/svg">
    <!-- Alma szár -->
    <path d="M100,45 C100,45 95,25 100,15" fill="none" stroke="#4a6741" stroke-width="4" stroke-linecap="round"/>
    
    <!-- Levél -->
    <path d="M100,45 C110,40 120,35 115,25 C110,15 100,20 100,25" fill="#68945c"/>
    
    <!-- Alma test -->
    <path d="M100,45 
             C130,45 160,75 160,115 
             C160,155 130,180 100,180 
             C70,180 40,155 40,115 
             C40,75 70,45 100,45" 
          fill="#e74c3c"/>
    
    <!-- Fényes rész az almán -->
    <path d="M90,65 
             C100,60 120,70 125,85 
             C130,100 120,115 110,120
             C100,125 85,115 80,100
             C75,85 80,70 90,65" 
          fill="#f05749"/>
</svg>
